<svg width="820" height="940" viewBox="0 0 820 940" fill="none" xmlns="http://www.w3.org/2000/svg">
<path d="M118.204 652.241L117.389 651.77L117.123 652.231L98.4802 618.399L127.592 571.521C128.044 571.956 128.588 572.299 129.191 572.515L100.661 618.455L119.029 651.787L118.204 652.241" fill="url(#paint0_linear_1_2)"/>
<path d="M99.5706 656.015L98.755 655.544L98.4875 656.007L81.4737 625.419L140.468 530.423C140.652 531.305 140.842 532.2 141.035 533.08L83.6586 625.47L100.394 655.557L99.5706 656.015" fill="url(#paint1_linear_1_2)"/>
<path d="M130.707 572.777C130.174 572.777 129.664 572.685 129.191 572.515C128.588 572.299 128.044 571.956 127.592 571.52C126.746 570.703 126.221 569.559 126.221 568.289C126.221 565.811 128.228 563.803 130.707 563.803C133.186 563.803 135.194 565.811 135.194 568.289C135.194 570.769 133.186 572.777 130.707 572.777" fill="url(#paint2_linear_1_2)"/>
<path d="M157.809 613.577C157.329 613.577 156.866 613.5 156.432 613.361L158.625 609.56L156.994 608.618L154.801 612.418C153.893 611.597 153.323 610.41 153.323 609.089C153.323 606.61 155.332 604.601 157.809 604.601C160.288 604.601 162.298 606.61 162.298 609.089C162.298 611.567 160.288 613.577 157.809 613.577" fill="url(#paint3_linear_1_2)"/>
<path d="M47.3647 826.652H45.1892L47.1895 823.187L169.193 611.797C169.536 612.467 169.871 613.119 170.22 613.788L48.8206 824.129L47.3647 826.652" fill="url(#paint4_linear_1_2)"/>
<path d="M68.8164 765.169L67.1852 764.227L69.3777 760.424L154.801 612.418L156.994 608.618L158.625 609.56L156.432 613.361L71.0088 761.369L68.8164 765.169" fill="url(#paint5_linear_1_2)"/>
<path d="M18.6314 826.652H16.4559L117.123 652.231L117.389 651.77L118.204 652.241L119.02 652.712L18.6314 826.652" fill="url(#paint6_linear_1_2)"/>
<path d="M2.17548 826.652H0L98.4877 656.007L98.7552 655.544L99.5707 656.015L100.386 656.486L2.17548 826.652" fill="url(#paint7_linear_1_2)"/>
<g filter="url(#filter0_di_1_2)">
<path d="M533.451 333.332V332.39H375.628L296.447 469.586L375.628 606.783H533.995L613.179 469.586L533.993 332.39H533.451V333.332L532.635 333.803L611.003 469.586L532.906 604.899H376.717L298.62 469.586L376.717 334.274H533.451V333.332L532.635 333.803L533.451 333.332Z" fill="url(#paint8_linear_1_2)"/>
</g>
<g filter="url(#filter1_di_1_2)">
<path d="M524.777 348.358V344.59H382.671L310.53 469.586L382.671 594.583H526.953L599.094 469.586L526.953 344.59H524.777V348.358L521.515 350.242L590.394 469.586L522.604 587.046H387.02L319.228 469.586L387.02 352.126H524.777V348.358L521.515 350.242L524.777 348.358" fill="url(#paint9_linear_1_2)"/>
</g>
<path d="M305.224 545.097L273.797 595.702L292.696 630L294.346 629.09L275.98 595.759L306.825 546.09L305.224 545.097Z" fill="url(#paint10_linear_1_2)"/>
<path d="M308.659 519.2L256.79 602.722L274.066 633.775L275.71 632.859L258.975 602.775L310.26 520.193L308.659 519.2Z" fill="url(#paint11_linear_1_2)"/>
<path d="M310.51 545.594C310.51 548.072 308.501 550.08 306.024 550.08C303.545 550.08 301.537 548.072 301.537 545.594C301.537 543.114 303.545 541.106 306.024 541.106C308.501 541.106 310.51 543.114 310.51 545.594Z" fill="url(#paint12_linear_1_2)"/>
<path d="M313.946 519.696C313.946 522.175 311.937 524.184 309.46 524.184C306.983 524.184 304.973 522.175 304.973 519.696C304.973 517.218 306.983 515.21 309.46 515.21C311.937 515.21 313.946 517.218 313.946 519.696Z" fill="url(#paint13_linear_1_2)"/>
<path d="M337.613 586.392C337.613 588.87 335.605 590.88 333.126 590.88C330.649 590.88 328.641 588.87 328.641 586.392C328.641 583.912 330.649 581.902 333.126 581.902C335.605 581.902 337.613 583.912 337.613 586.392Z" fill="url(#paint14_linear_1_2)"/>
<path d="M247.804 742C247.804 744.479 245.794 746.489 243.317 746.489C240.839 746.489 238.831 744.479 238.831 742C238.831 739.521 240.839 737.513 243.317 737.513C245.794 737.513 247.804 739.521 247.804 742Z" fill="url(#paint15_linear_1_2)"/>
<path d="M225.614 804.76C225.614 807.24 223.606 809.249 221.127 809.249C218.651 809.249 216.641 807.24 216.641 804.76C216.641 802.283 218.651 800.274 221.127 800.274C223.606 800.274 225.614 802.283 225.614 804.76Z" fill="url(#paint16_linear_1_2)"/>
<path d="M221.943 805.232L356.329 572.389L354.698 571.447L220.312 804.29" fill="url(#paint17_linear_1_2)"/>
<path d="M244.133 742.471L333.941 586.863L332.31 585.921L242.502 741.529" fill="url(#paint18_linear_1_2)"/>
<path d="M159.951 862.857L294.337 630.015L292.705 629.072L158.319 861.915" fill="url(#paint19_linear_1_2)"/>
<path d="M141.317 866.632L275.705 633.789L274.074 632.847L139.686 865.69" fill="url(#paint20_linear_1_2)"/>
<path d="M464.093 636.436L436.044 687.735L398 688.138L398.021 690.022L437.166 689.608L465.747 637.34L464.093 636.436" fill="url(#paint21_linear_1_2)"/>
<path d="M484.942 620.702L438.304 705.994L403.887 706.222L403.9 708.107L439.425 707.873L486.594 621.606L484.942 620.702Z" fill="url(#paint22_linear_1_2)"/>
<path d="M462.713 632.978C460.557 634.199 459.796 636.937 461.016 639.096C462.235 641.254 464.972 642.013 467.128 640.794C469.287 639.573 470.048 636.835 468.827 634.68C467.608 632.52 464.872 631.759 462.713 632.978Z" fill="url(#paint23_linear_1_2)"/>
<path d="M483.561 617.248C481.403 618.465 480.644 621.204 481.862 623.362C483.081 625.521 485.818 626.282 487.974 625.061C490.133 623.842 490.894 621.104 489.675 618.945C488.454 616.788 485.718 616.027 483.561 617.248" fill="url(#paint24_linear_1_2)"/>
<path d="M413.873 629.448C411.714 630.669 410.955 633.406 412.172 635.566C413.393 637.723 416.129 638.482 418.286 637.263C420.445 636.042 421.204 633.305 419.987 631.149C418.766 628.99 416.03 628.229 413.873 629.448Z" fill="url(#paint25_linear_1_2)"/>
<path d="M322.633 784.223C320.476 785.443 319.715 788.182 320.936 790.338C322.153 792.496 324.889 793.258 327.048 792.037C329.205 790.818 329.966 788.08 328.747 785.921C327.528 783.764 324.792 783.004 322.633 784.223" fill="url(#paint26_linear_1_2)"/>
<path d="M281.949 838.813L418.473 607.218L416.851 606.261L280.326 837.857" fill="url(#paint27_linear_1_2)"/>
<path d="M325.652 788.608L416.89 633.836L415.269 632.879L324.029 787.651" fill="url(#paint28_linear_1_2)"/>
<path d="M262.298 921.155L398.821 689.559L397.2 688.602L260.676 920.197" fill="url(#paint29_linear_1_2)"/>
<path d="M268.18 939.239L404.704 707.643L403.082 706.686L266.558 938.281" fill="url(#paint30_linear_1_2)"/>
<path d="M604.488 394.142L635.914 343.537L617.015 309.239L615.365 310.149L633.733 343.48L602.887 393.149L604.488 394.142Z" fill="url(#paint31_linear_1_2)"/>
<path d="M601.053 420.04L652.921 336.516L635.647 305.463L634.001 306.381L650.738 336.465L599.454 419.045L601.053 420.04Z" fill="url(#paint32_linear_1_2)"/>
<path d="M599.2 393.646C599.2 391.167 601.21 389.158 603.687 389.158C606.166 389.158 608.176 391.167 608.176 393.646C608.176 396.124 606.166 398.135 603.687 398.135C601.21 398.135 599.2 396.124 599.2 393.646Z" fill="url(#paint33_linear_1_2)"/>
<path d="M595.767 419.543C595.767 417.063 597.775 415.055 600.254 415.055C602.731 415.055 604.741 417.063 604.741 419.543C604.741 422.022 602.731 424.031 600.254 424.031C597.775 424.031 595.767 422.022 595.767 419.543Z" fill="url(#paint34_linear_1_2)"/>
<path d="M572.096 352.846C572.096 350.369 574.106 348.358 576.583 348.358C579.064 348.358 581.071 350.369 581.071 352.846C581.071 355.326 579.064 357.336 576.583 357.336C574.106 357.336 572.096 355.326 572.096 352.846Z" fill="url(#paint35_linear_1_2)"/>
<path d="M687.768 134.004L553.384 366.849L555.015 367.792L689.399 134.947" fill="url(#paint36_linear_1_2)"/>
<path d="M665.579 196.766L575.768 352.375L577.399 353.317L667.21 197.708" fill="url(#paint37_linear_1_2)"/>
<path d="M749.76 76.381L615.374 309.224L617.006 310.166L751.392 77.3231" fill="url(#paint38_linear_1_2)"/>
<path d="M768.394 72.6069L634.008 305.45L635.639 306.392L770.025 73.549" fill="url(#paint39_linear_1_2)"/>
<path d="M445.615 302.802L473.667 251.502L511.71 251.1L511.691 249.216L472.544 249.631L443.964 301.898L445.615 302.802Z" fill="url(#paint40_linear_1_2)"/>
<path d="M424.771 318.536L471.407 233.244L505.822 233.016L505.811 231.132L470.286 231.368L423.119 317.633L424.771 318.536" fill="url(#paint41_linear_1_2)"/>
<path d="M446.998 306.258C449.155 305.039 449.916 302.301 448.697 300.144C447.477 297.986 444.74 297.225 442.583 298.444C440.425 299.663 439.666 302.401 440.884 304.56C442.105 306.718 444.842 307.479 446.998 306.258" fill="url(#paint42_linear_1_2)"/>
<path d="M426.152 321.991C428.309 320.772 429.07 318.034 427.849 315.877C426.63 313.717 423.894 312.956 421.735 314.177C419.58 315.396 418.819 318.134 420.038 320.291C421.257 322.451 423.995 323.212 426.152 321.991Z" fill="url(#paint43_linear_1_2)"/>
<path d="M325.623 393.064C327.781 391.845 328.54 389.106 327.32 386.948C326.103 384.791 323.366 384.03 321.208 385.249C319.051 386.468 318.29 389.207 319.509 391.365C320.727 393.524 323.466 394.283 325.623 393.064Z" fill="url(#paint44_linear_1_2)"/>
<path d="M495.84 309.791C497.999 308.57 498.758 305.832 497.539 303.675C496.319 301.517 493.582 300.756 491.426 301.975C489.269 303.194 488.508 305.932 489.727 308.091C490.947 310.249 493.684 311.01 495.84 309.791Z" fill="url(#paint45_linear_1_2)"/>
<path d="M627.764 100.427L491.241 332.021L492.862 332.978L629.386 101.384" fill="url(#paint46_linear_1_2)"/>
<path d="M584.061 150.629L492.823 305.405L494.444 306.362L585.682 151.586" fill="url(#paint47_linear_1_2)"/>
<path d="M647.415 18.0864L510.889 249.68L512.513 250.637L649.037 19.0436" fill="url(#paint48_linear_1_2)"/>
<path d="M641.531 -3.11905e-05L505.006 231.596L506.63 232.553L643.153 0.957146" fill="url(#paint49_linear_1_2)"/>
<path d="M350.257 340.661L289.639 445.687L291.27 446.629L351.888 341.603" fill="url(#paint50_linear_1_2)"/>
<path d="M589.73 549.5C591.887 548.279 592.648 545.542 591.427 543.384C590.211 541.225 587.474 540.466 585.315 541.685C583.159 542.906 582.398 545.643 583.617 547.799C584.835 549.958 587.572 550.719 589.73 549.5Z" fill="url(#paint51_linear_1_2)"/>
<path d="M614.365 497.097L553.748 602.123L555.379 603.065L615.996 498.039" fill="url(#paint52_linear_1_2)"/>
<path d="M623.995 556.049L718.665 380.73L687.555 300.845L819.924 72.6276L813.406 68.8442L679.218 300.201L710.379 380.216L617.367 552.468L623.995 556.049" fill="url(#paint53_linear_1_2)"/>
<path d="M624.788 565.073H621.021C621.019 566.623 620.403 567.991 619.39 569.011C618.371 570.024 617.004 570.639 615.453 570.642C613.905 570.641 612.538 570.024 611.517 569.011C610.505 567.991 609.889 566.623 609.888 565.073C609.889 563.524 610.505 562.156 611.519 561.137C612.538 560.123 613.905 559.507 615.453 559.505C617.004 559.507 618.371 560.123 619.39 561.137C620.403 562.156 621.019 563.524 621.021 565.073H624.788H628.555C628.553 557.834 622.69 551.972 615.453 551.968C608.217 551.972 602.355 557.836 602.354 565.073C602.355 572.314 608.219 578.175 615.453 578.177C622.69 578.177 628.553 572.314 628.555 565.073H624.788" fill="url(#paint54_linear_1_2)"/>
<path d="M288.151 383.191L193.479 558.508L224.59 638.394L92.221 866.611L98.738 870.393L232.926 639.038L201.765 559.023L294.779 386.773L288.151 383.191" fill="url(#paint55_linear_1_2)"/>
<path d="M287.358 374.164H291.125C291.127 372.615 291.741 371.247 292.755 370.228C293.773 369.214 295.143 368.598 296.691 368.596C298.239 368.598 299.607 369.214 300.626 370.228C301.639 371.247 302.255 372.615 302.257 374.164C302.255 375.715 301.639 377.083 300.626 378.102C299.607 379.116 298.239 379.732 296.691 379.734C295.143 379.732 293.773 379.116 292.755 378.102C291.741 377.083 291.127 375.715 291.125 374.164H287.358H283.591C283.593 381.403 289.455 387.267 296.691 387.27C303.928 387.267 309.787 381.403 309.791 374.164C309.787 366.925 303.928 361.063 296.691 361.059C289.455 361.063 283.593 366.925 283.591 374.164H287.358" fill="url(#paint56_linear_1_2)"/>
<path d="M337.613 320.281C329.357 320.281 322.662 313.582 322.662 305.322C322.662 297.062 329.357 290.364 337.613 290.364C345.872 290.364 352.568 297.062 352.568 305.322C352.568 313.582 345.872 320.281 337.613 320.281ZM355.294 305.322C355.294 305.122 355.284 304.925 355.279 304.727L357.32 304.512L357.059 302.015L355.019 302.23C354.949 301.836 354.868 301.448 354.776 301.064L356.721 300.431L355.947 298.044L354 298.677C353.847 298.307 353.689 297.944 353.516 297.588L355.288 296.564L354.032 294.39L352.261 295.415C352.037 295.085 351.8 294.767 351.557 294.454L353.081 293.081L351.402 291.215L349.877 292.589C349.59 292.314 349.297 292.046 348.991 291.79L350.199 290.132L348.168 288.655L346.963 290.315C346.626 290.104 346.285 289.904 345.932 289.715L346.767 287.846L344.475 286.825L343.64 288.692C343.269 288.559 342.891 288.44 342.508 288.329L342.934 286.324L340.48 285.802L340.052 287.809C339.662 287.754 339.267 287.715 338.869 287.686V285.632H336.358V287.686C335.961 287.715 335.566 287.754 335.176 287.809L334.75 285.802L332.294 286.324L332.721 288.329C332.339 288.44 331.957 288.559 331.586 288.692L330.755 286.825L328.463 287.846L329.295 289.715C328.945 289.904 328.6 290.104 328.265 290.315L327.061 288.655L325.031 290.132L326.235 291.79C325.931 292.046 325.637 292.314 325.353 292.589L323.827 291.215L322.147 293.081L323.673 294.454C323.428 294.767 323.191 295.085 322.969 295.415L321.194 294.39L319.94 296.564L321.712 297.588C321.539 297.944 321.381 298.307 321.23 298.677L319.282 298.044L318.508 300.431L320.454 301.064C320.36 301.448 320.279 301.836 320.209 302.23L318.171 302.015L317.907 304.512L319.949 304.727C319.944 304.925 319.936 305.122 319.936 305.322C319.936 305.522 319.944 305.72 319.949 305.918L317.907 306.132L318.171 308.629L320.209 308.414C320.279 308.808 320.36 309.196 320.454 309.58L318.508 310.213L319.282 312.601L321.23 311.968C321.381 312.337 321.539 312.701 321.714 313.057L319.94 314.08L321.194 316.254L322.969 315.229C323.191 315.559 323.428 315.877 323.673 316.19L322.147 317.564L323.827 319.429L325.353 318.055C325.637 318.331 325.931 318.598 326.235 318.854L325.031 320.514L327.061 321.99L328.265 320.33C328.6 320.541 328.945 320.74 329.295 320.927L328.463 322.798L330.755 323.819L331.586 321.952C331.959 322.088 332.339 322.206 332.721 322.316L332.294 324.32L334.75 324.842L335.176 322.836C335.566 322.89 335.961 322.93 336.358 322.958V325.012H338.869V322.958C339.267 322.93 339.662 322.89 340.052 322.836L340.48 324.842L342.934 324.32L342.508 322.316C342.891 322.206 343.269 322.088 343.64 321.952L344.475 323.819L346.767 322.798L345.932 320.929C346.285 320.74 346.626 320.541 346.963 320.33L348.168 321.99L350.199 320.514L348.991 318.854C349.297 318.598 349.59 318.331 349.877 318.055L351.402 319.429L353.081 317.564L351.557 316.19C351.8 315.877 352.037 315.559 352.261 315.229L354.032 316.254L355.288 314.08L353.516 313.057C353.689 312.701 353.847 312.337 354 311.968L355.947 312.601L356.721 310.213L354.776 309.58C354.868 309.196 354.949 308.808 355.019 308.414L357.059 308.629L357.32 306.132L355.279 305.918C355.284 305.72 355.294 305.522 355.294 305.322" fill="url(#paint57_linear_1_2)"/>
<path d="M512.121 650.061C507.327 650.061 503.44 646.172 503.44 641.377C503.44 636.581 507.327 632.692 512.121 632.692C516.916 632.692 520.802 636.581 520.802 641.377C520.802 646.172 516.916 650.061 512.121 650.061ZM522.384 641.377L522.375 641.032L523.561 640.907L523.409 639.457L522.224 639.581C522.183 639.353 522.138 639.127 522.083 638.905L523.213 638.537L522.763 637.15L521.633 637.52C521.546 637.303 521.454 637.092 521.352 636.887L522.38 636.291L521.652 635.029L520.623 635.624C520.493 635.434 520.356 635.249 520.214 635.066L521.1 634.269L520.126 633.186L519.239 633.985C519.073 633.825 518.902 633.67 518.728 633.521L519.427 632.557L518.248 631.701L517.549 632.664C517.353 632.542 517.156 632.427 516.95 632.317L517.434 631.23L516.103 630.637L515.621 631.722C515.404 631.645 515.185 631.575 514.961 631.511L515.208 630.347L513.784 630.045L513.537 631.21C513.311 631.177 513.08 631.155 512.848 631.138V629.945H511.392V631.138C511.162 631.155 510.932 631.177 510.706 631.21L510.458 630.045L509.032 630.347L509.281 631.511C509.058 631.575 508.838 631.645 508.621 631.722L508.137 630.637L506.807 631.23L507.292 632.317C507.088 632.427 506.888 632.542 506.694 632.664L505.994 631.701L504.817 632.557L505.515 633.521C505.338 633.67 505.167 633.825 505.001 633.985L504.118 633.186L503.142 634.269L504.027 635.066C503.886 635.249 503.747 635.434 503.619 635.624L502.588 635.029L501.859 636.291L502.89 636.887C502.79 637.092 502.698 637.303 502.609 637.52L501.479 637.15L501.029 638.537L502.159 638.905C502.104 639.127 502.057 639.353 502.016 639.581L500.835 639.457L500.68 640.907L501.865 641.032L501.858 641.377L501.865 641.721L500.68 641.848L500.835 643.297L502.016 643.172C502.057 643.4 502.104 643.626 502.159 643.849L501.029 644.214L501.479 645.603L502.609 645.234C502.698 645.448 502.79 645.659 502.89 645.867L501.859 646.46L502.588 647.723L503.619 647.127C503.747 647.319 503.886 647.504 504.027 647.685L503.142 648.484L504.118 649.565L505.001 648.768C505.167 648.928 505.338 649.083 505.515 649.232L504.817 650.195L505.994 651.052L506.694 650.089C506.888 650.212 507.088 650.328 507.292 650.436L506.807 651.521L508.137 652.115L508.621 651.031C508.838 651.11 509.058 651.178 509.281 651.242L509.032 652.405L510.458 652.708L510.706 651.544C510.932 651.576 511.162 651.598 511.392 651.615V652.806H512.848V651.615C513.08 651.598 513.311 651.576 513.537 651.544L513.784 652.708L515.208 652.405L514.961 651.242C515.185 651.178 515.404 651.11 515.621 651.031L516.103 652.115L517.434 651.521L516.95 650.436C517.156 650.328 517.353 650.212 517.549 650.089L518.248 651.052L519.427 650.195L518.728 649.232C518.902 649.083 519.073 648.928 519.239 648.768L520.126 649.565L521.1 648.484L520.214 647.685C520.356 647.504 520.493 647.319 520.623 647.127L521.652 647.723L522.38 646.46L521.352 645.867C521.454 645.659 521.546 645.448 521.633 645.234L522.763 645.603L523.213 644.214L522.083 643.849C522.138 643.626 522.183 643.4 522.224 643.172L523.409 643.297L523.561 641.848L522.375 641.721L522.384 641.377Z" fill="url(#paint58_linear_1_2)"/>
<path d="M488.544 202.365C484.253 202.365 480.772 198.885 480.772 194.591C480.772 190.295 484.253 186.815 488.544 186.815C492.836 186.815 496.317 190.295 496.317 194.591C496.317 198.885 492.836 202.365 488.544 202.365ZM500.915 196.718L500.003 196.386C499.497 196.202 499.184 195.704 499.212 195.165C499.223 194.975 499.229 194.783 499.229 194.591C499.229 194.406 499.223 194.223 499.214 194.04L501.052 193.547C501.698 193.375 502.079 192.712 501.906 192.07L501.376 190.089C501.205 189.447 500.542 189.062 499.896 189.236L498.958 189.488C498.44 189.626 497.899 189.402 497.617 188.946L497.492 188.753C497.199 188.303 497.223 187.717 497.568 187.305L498.193 186.558C498.622 186.048 498.557 185.287 498.044 184.859L496.475 183.542C495.965 183.112 495.202 183.178 494.774 183.691L494.151 184.433C493.808 184.842 493.239 184.974 492.752 184.765C492.388 184.608 492.017 184.473 491.635 184.358C491.124 184.203 490.776 183.738 490.776 183.206V182.234C490.776 181.567 490.235 181.026 489.568 181.026H487.521C486.854 181.026 486.314 181.567 486.314 182.234V183.203C486.314 183.742 485.954 184.205 485.44 184.361L485.219 184.429C484.709 184.597 484.151 184.422 483.842 183.981L483.287 183.188C482.905 182.643 482.153 182.509 481.607 182.892L479.929 184.067C479.382 184.45 479.251 185.204 479.633 185.748L480.19 186.545C480.499 186.986 480.471 187.572 480.14 187.996L480 188.175C479.678 188.605 479.119 188.784 478.616 188.599L477.7 188.267C477.075 188.037 476.382 188.362 476.154 188.989L475.453 190.913C475.225 191.54 475.549 192.234 476.177 192.462L477.086 192.793C477.595 192.978 477.908 193.475 477.876 194.014C477.866 194.204 477.86 194.397 477.86 194.591C477.86 194.773 477.864 194.956 477.874 195.139L476.037 195.633C475.393 195.804 475.011 196.467 475.182 197.11L475.713 199.09C475.885 199.734 476.548 200.117 477.192 199.944L478.13 199.693C478.648 199.554 479.188 199.778 479.475 200.234L479.595 200.426C479.889 200.876 479.866 201.462 479.52 201.875L478.896 202.619C478.469 203.132 478.535 203.893 479.045 204.322L480.614 205.638C481.125 206.067 481.886 206.001 482.315 205.489L482.94 204.744C483.281 204.337 483.848 204.206 484.338 204.415C484.7 204.571 485.072 204.707 485.455 204.822C485.963 204.976 486.314 205.442 486.314 205.975V206.945C486.314 207.612 486.854 208.153 487.521 208.153H489.568C490.235 208.153 490.776 207.612 490.776 206.945V205.977C490.776 205.438 491.134 204.974 491.65 204.818L491.868 204.75C492.379 204.582 492.938 204.758 493.245 205.199L493.801 205.99C494.183 206.536 494.936 206.67 495.483 206.288L497.159 205.114C497.705 204.729 497.839 203.976 497.457 203.429L496.899 202.634C496.592 202.193 496.617 201.607 496.95 201.185L497.087 201.003C497.411 200.575 497.969 200.398 498.476 200.58L499.387 200.912C500.014 201.142 500.708 200.818 500.935 200.19L501.634 198.267C501.862 197.639 501.542 196.946 500.915 196.718" fill="url(#paint59_linear_1_2)"/>
<path d="M337.613 676.302C333.323 676.302 329.842 672.82 329.842 668.526C329.842 664.232 333.323 660.751 337.613 660.751C341.908 660.751 345.386 664.232 345.386 668.526C345.386 672.82 341.908 676.302 337.613 676.302ZM349.984 670.655L349.073 670.323C348.566 670.137 348.253 669.641 348.281 669.1C348.293 668.912 348.298 668.718 348.298 668.526C348.298 668.341 348.293 668.158 348.283 667.977L350.122 667.484C350.768 667.31 351.148 666.649 350.977 666.005L350.446 664.026C350.274 663.382 349.611 662.999 348.969 663.173L348.029 663.423C347.509 663.563 346.969 663.338 346.686 662.882L346.562 662.688C346.268 662.238 346.292 661.652 346.637 661.241L347.262 660.495C347.692 659.985 347.626 659.221 347.114 658.794L345.545 657.477C345.034 657.049 344.271 657.115 343.844 657.627L343.22 658.37C342.878 658.779 342.309 658.909 341.821 658.7C341.457 658.545 341.086 658.409 340.704 658.293C340.194 658.14 339.845 657.673 339.845 657.141V656.169C339.845 655.504 339.305 654.961 338.638 654.961H336.59C335.924 654.961 335.383 655.504 335.383 656.169V657.139C335.383 657.676 335.023 658.142 334.509 658.296L334.291 658.366C333.78 658.532 333.221 658.357 332.912 657.918L332.356 657.124C331.976 656.578 331.222 656.446 330.676 656.829L328.998 658.002C328.452 658.385 328.32 659.139 328.702 659.685L329.26 660.48C329.569 660.923 329.54 661.507 329.209 661.931L329.07 662.11C328.747 662.541 328.188 662.718 327.685 662.536L326.77 662.202C326.144 661.974 325.451 662.296 325.223 662.924L324.523 664.85C324.295 665.477 324.619 666.17 325.246 666.398L326.156 666.73C326.664 666.913 326.977 667.412 326.947 667.949C326.935 668.141 326.93 668.331 326.93 668.526C326.93 668.708 326.934 668.893 326.943 669.076L325.107 669.568C324.462 669.739 324.08 670.402 324.253 671.047L324.783 673.025C324.956 673.669 325.617 674.052 326.261 673.88L327.199 673.628C327.719 673.488 328.258 673.715 328.544 674.171L328.665 674.361C328.96 674.813 328.938 675.399 328.591 675.812L327.966 676.554C327.538 677.067 327.604 677.828 328.115 678.257L329.684 679.574C330.194 680.004 330.955 679.936 331.384 679.426L332.01 678.681C332.351 678.274 332.918 678.141 333.409 678.352C333.769 678.508 334.144 678.644 334.524 678.757C335.033 678.911 335.383 679.377 335.383 679.91V680.88C335.383 681.549 335.924 682.09 336.59 682.09H338.638C339.305 682.09 339.845 681.549 339.845 680.88V679.914C339.845 679.375 340.203 678.909 340.719 678.753L340.938 678.685C341.448 678.517 342.007 678.693 342.314 679.135L342.87 679.927C343.252 680.475 344.006 680.607 344.552 680.224L346.23 679.049C346.777 678.666 346.908 677.913 346.528 677.366L345.968 676.569C345.661 676.13 345.688 675.542 346.019 675.12L346.159 674.939C346.481 674.51 347.038 674.333 347.545 674.515L348.457 674.849C349.084 675.077 349.777 674.753 350.005 674.125L350.704 672.202C350.933 671.576 350.611 670.883 349.984 670.655" fill="url(#paint60_linear_1_2)"/>
<path d="M566.991 625.285C564.333 625.285 562.18 623.132 562.18 620.473C562.18 617.817 564.333 615.661 566.991 615.661C569.647 615.661 571.799 617.817 571.799 620.473C571.799 623.132 569.647 625.285 566.991 625.285ZM574.644 621.79L574.08 621.587C573.766 621.47 573.574 621.163 573.591 620.829L573.602 620.473L573.592 620.134L574.73 619.829C575.129 619.721 575.365 619.313 575.258 618.913L574.93 617.688C574.824 617.289 574.414 617.053 574.014 617.161L573.434 617.315C573.114 617.402 572.779 617.263 572.604 616.98L572.526 616.861C572.346 616.582 572.361 616.221 572.574 615.964L572.96 615.505C573.225 615.188 573.186 614.715 572.869 614.451L571.897 613.636C571.581 613.37 571.11 613.413 570.844 613.73L570.458 614.189C570.247 614.442 569.897 614.523 569.592 614.393C569.368 614.295 569.138 614.214 568.903 614.14C568.586 614.046 568.371 613.756 568.371 613.43V612.827C568.371 612.415 568.036 612.081 567.624 612.081H566.356C565.943 612.081 565.608 612.415 565.608 612.827V613.428C565.608 613.76 565.388 614.048 565.068 614.142L564.934 614.186C564.617 614.289 564.271 614.182 564.081 613.909L563.736 613.419C563.501 613.08 563.033 612.997 562.696 613.234L561.658 613.961C561.321 614.199 561.238 614.664 561.476 615.002L561.819 615.495C562.011 615.768 561.994 616.13 561.788 616.392L561.702 616.503C561.502 616.771 561.157 616.88 560.845 616.767L560.28 616.562C559.892 616.418 559.462 616.62 559.321 617.006L558.89 618.199C558.748 618.587 558.946 619.015 559.334 619.156L559.899 619.362C560.212 619.475 560.406 619.784 560.389 620.117L560.378 620.473L560.387 620.812L559.249 621.119C558.85 621.225 558.613 621.636 558.722 622.033L559.05 623.258C559.155 623.656 559.566 623.893 559.963 623.788L560.545 623.631C560.867 623.546 561.199 623.684 561.376 623.966L561.451 624.085C561.634 624.364 561.619 624.728 561.406 624.982L561.02 625.442C560.754 625.758 560.796 626.229 561.11 626.495L562.082 627.311C562.397 627.575 562.87 627.535 563.135 627.219L563.521 626.759C563.732 626.506 564.084 626.423 564.388 626.553C564.612 626.65 564.842 626.734 565.077 626.806C565.393 626.9 565.608 627.188 565.608 627.518V628.119C565.608 628.532 565.943 628.867 566.356 628.867H567.624C568.036 628.867 568.371 628.532 568.371 628.119V627.52C568.371 627.187 568.592 626.9 568.912 626.802L569.046 626.761C569.362 626.657 569.709 626.766 569.899 627.038L570.242 627.529C570.479 627.869 570.944 627.95 571.283 627.714L572.323 626.985C572.658 626.749 572.741 626.282 572.504 625.945L572.161 625.451C571.969 625.18 571.986 624.816 572.191 624.554L572.278 624.441C572.477 624.178 572.822 624.066 573.135 624.181L573.7 624.387C574.088 624.528 574.517 624.328 574.659 623.94L575.09 622.749C575.233 622.361 575.032 621.932 574.644 621.79" fill="url(#paint61_linear_1_2)"/>
<g filter="url(#filter2_d_1_2)">
<path d="M503.594 468.381C503.594 495.425 481.671 517.348 454.628 517.348C427.584 517.348 405.661 495.425 405.661 468.381C405.661 441.338 427.584 419.415 454.628 419.415C481.671 419.415 503.594 441.338 503.594 468.381Z" fill="#081939"/>
<path d="M503.594 468.381C503.594 495.425 481.671 517.348 454.628 517.348C427.584 517.348 405.661 495.425 405.661 468.381C405.661 441.338 427.584 419.415 454.628 419.415C481.671 419.415 503.594 441.338 503.594 468.381Z" fill="url(#paint62_radial_1_2)" fill-opacity="0.9"/>
<path d="M503.594 468.381C503.594 495.425 481.671 517.348 454.628 517.348C427.584 517.348 405.661 495.425 405.661 468.381C405.661 441.338 427.584 419.415 454.628 419.415C481.671 419.415 503.594 441.338 503.594 468.381Z" fill="url(#paint63_radial_1_2)" fill-opacity="0.85"/>
<path d="M503.594 468.381C503.594 495.425 481.671 517.348 454.628 517.348C427.584 517.348 405.661 495.425 405.661 468.381C405.661 441.338 427.584 419.415 454.628 419.415C481.671 419.415 503.594 441.338 503.594 468.381Z" fill="url(#paint64_radial_1_2)" fill-opacity="0.8"/>
<path d="M503.594 468.381C503.594 495.425 481.671 517.348 454.628 517.348C427.584 517.348 405.661 495.425 405.661 468.381C405.661 441.338 427.584 419.415 454.628 419.415C481.671 419.415 503.594 441.338 503.594 468.381Z" fill="url(#paint65_radial_1_2)" fill-opacity="0.88"/>
<path d="M503.094 468.381C503.094 495.148 481.395 516.848 454.628 516.848C427.86 516.848 406.161 495.148 406.161 468.381C406.161 441.614 427.86 419.915 454.628 419.915C481.395 419.915 503.094 441.614 503.094 468.381Z" stroke="#596387"/>
</g>
<path d="M437.077 441.481C433.311 429.602 450.696 429.316 456.78 443.22C459.855 450.251 459.265 460.246 458.604 470.264C449.151 459.156 439.052 447.71 437.077 441.481Z" fill="url(#paint66_linear_1_2)"/>
<path d="M461.316 502.327C492.331 496.854 505.409 470.026 493.673 452.954C488.199 444.992 479.627 446.47 461.316 447.566C443.005 448.663 424.806 451.738 424.806 475.671C424.805 499.604 447.064 504.842 461.316 502.327Z" fill="url(#paint67_radial_1_2)"/>
<path d="M461.316 502.327C492.331 496.854 505.409 470.026 493.673 452.954C488.199 444.992 479.627 446.47 461.316 447.566C443.005 448.663 424.806 451.738 424.806 475.671C424.805 499.604 447.064 504.842 461.316 502.327Z" fill="url(#paint68_linear_1_2)"/>
<g style="mix-blend-mode:hard-light">
<path d="M433.788 474.222C433.787 458.214 438.735 443.282 441.224 436.213C442.248 433.304 446.082 432.476 448.637 434.202C452.989 436.826 461.755 443.2 470.604 449.311C479.8 455.662 493.061 462.682 486.975 483.501C482.364 499.274 459.865 498.561 459.865 498.561C459.865 498.561 433.789 498.127 433.788 474.222Z" fill="url(#paint69_linear_1_2)"/>
</g>
<path d="M484.108 497.83C496.856 486.675 501.283 463.358 492.735 448.872C484.187 434.385 472.01 431.012 461.878 431.487C451.745 431.962 431.165 438.297 430.296 461.04C429.427 483.784 441.255 493.43 453.627 504.299C458.407 508.499 471.36 508.984 484.108 497.83Z" fill="url(#paint70_linear_1_2)"/>
<path d="M439.816 490.924C440.545 491.355 441.196 491.774 441.683 492.21C448.028 497.893 457.756 497.29 468.058 494.595C478.924 491.754 496.549 486.633 499.41 473.072C501.031 465.389 495.149 455.07 487.258 446.696C480.071 439.069 471.302 433.057 463.358 432.125C461.368 431.891 458.939 431.869 456.333 432.209C441.244 435.322 433.098 443.758 431.854 460.927C430.61 478.096 432.014 481.41 439.816 490.924Z" fill="url(#paint71_linear_1_2)" fill-opacity="0.78"/>
<g style="mix-blend-mode:color-dodge">
<path d="M421.279 472.823C418.915 456.401 425.88 438.696 441.808 438.696C454.382 438.696 461.488 448.309 471.149 454.624C483.012 462.379 492.106 467.727 492.106 475.582C492.106 489.833 470.859 497.402 450.592 489.289C435.805 483.37 423.643 489.246 421.279 472.823Z" fill="url(#paint72_radial_1_2)" fill-opacity="0.8"/>
</g>
<path d="M421.279 472.823C418.915 456.401 425.88 438.696 441.808 438.696C454.382 438.696 461.488 448.309 471.149 454.624C483.012 462.379 492.106 467.727 492.106 475.582C492.106 489.833 470.859 497.402 450.592 489.289C435.805 483.37 423.643 489.246 421.279 472.823Z" fill="url(#paint73_linear_1_2)"/>
<path d="M459.822 496.966C465.037 511.309 478.221 506.815 476.192 495.517C475.227 490.143 467.181 480.342 458.604 470.263C457.958 480.059 457.244 489.876 459.822 496.966Z" fill="url(#paint74_radial_1_2)"/>
<path d="M459.822 496.966C465.037 511.309 478.221 506.815 476.192 495.517C475.227 490.143 467.181 480.342 458.604 470.263C457.958 480.059 457.244 489.876 459.822 496.966Z" fill="url(#paint75_linear_1_2)"/>
<g filter="url(#filter3_df_1_2)">
<path d="M466.957 467.454C466.957 474.263 461.436 479.784 454.627 479.784C447.817 479.784 442.297 474.263 442.297 467.454C442.297 464.836 443.113 462.408 444.505 460.412C445.913 458.392 446.868 458.13 445.259 456.266C443.169 453.846 441.332 450.844 451.575 449.226C461.129 447.716 465.935 447.151 463.359 455.967C462.77 457.98 463.42 458.562 464.645 460.265C466.1 462.288 466.957 464.771 466.957 467.454Z" fill="white"/>
</g>
<defs>
<filter id="filter0_di_1_2" x="281.447" y="317.39" width="346.732" height="304.393" filterUnits="userSpaceOnUse" color-interpolation-filters="sRGB">
<feFlood flood-opacity="0" result="BackgroundImageFix"/>
<feColorMatrix in="SourceAlpha" type="matrix" values="0 0 0 0 0 0 0 0 0 0 0 0 0 0 0 0 0 0 127 0" result="hardAlpha"/>
<feOffset/>
<feGaussianBlur stdDeviation="7.5"/>
<feColorMatrix type="matrix" values="0 0 0 0 0.509804 0 0 0 0 0.843137 0 0 0 0 0.968627 0 0 0 1 0"/>
<feBlend mode="normal" in2="BackgroundImageFix" result="effect1_dropShadow_1_2"/>
<feBlend mode="normal" in="SourceGraphic" in2="effect1_dropShadow_1_2" result="shape"/>
<feColorMatrix in="SourceAlpha" type="matrix" values="0 0 0 0 0 0 0 0 0 0 0 0 0 0 0 0 0 0 127 0" result="hardAlpha"/>
<feOffset dy="4"/>
<feGaussianBlur stdDeviation="5"/>
<feComposite in2="hardAlpha" operator="arithmetic" k2="-1" k3="1"/>
<feColorMatrix type="matrix" values="0 0 0 0 0.509804 0 0 0 0 0.843137 0 0 0 0 0.968627 0 0 0 0.5 0"/>
<feBlend mode="normal" in2="shape" result="effect2_innerShadow_1_2"/>
</filter>
<filter id="filter1_di_1_2" x="295.53" y="329.59" width="318.564" height="279.993" filterUnits="userSpaceOnUse" color-interpolation-filters="sRGB">
<feFlood flood-opacity="0" result="BackgroundImageFix"/>
<feColorMatrix in="SourceAlpha" type="matrix" values="0 0 0 0 0 0 0 0 0 0 0 0 0 0 0 0 0 0 127 0" result="hardAlpha"/>
<feOffset/>
<feGaussianBlur stdDeviation="7.5"/>
<feColorMatrix type="matrix" values="0 0 0 0 0.509804 0 0 0 0 0.843137 0 0 0 0 0.968627 0 0 0 1 0"/>
<feBlend mode="normal" in2="BackgroundImageFix" result="effect1_dropShadow_1_2"/>
<feBlend mode="normal" in="SourceGraphic" in2="effect1_dropShadow_1_2" result="shape"/>
<feColorMatrix in="SourceAlpha" type="matrix" values="0 0 0 0 0 0 0 0 0 0 0 0 0 0 0 0 0 0 127 0" result="hardAlpha"/>
<feOffset dy="4"/>
<feGaussianBlur stdDeviation="5"/>
<feComposite in2="hardAlpha" operator="arithmetic" k2="-1" k3="1"/>
<feColorMatrix type="matrix" values="0 0 0 0 0.509804 0 0 0 0 0.843137 0 0 0 0 0.968627 0 0 0 0.5 0"/>
<feBlend mode="normal" in2="shape" result="effect2_innerShadow_1_2"/>
</filter>
<filter id="filter2_d_1_2" x="350.661" y="386.415" width="207.932" height="207.932" filterUnits="userSpaceOnUse" color-interpolation-filters="sRGB">
<feFlood flood-opacity="0" result="BackgroundImageFix"/>
<feColorMatrix in="SourceAlpha" type="matrix" values="0 0 0 0 0 0 0 0 0 0 0 0 0 0 0 0 0 0 127 0" result="hardAlpha"/>
<feOffset dy="22"/>
<feGaussianBlur stdDeviation="27.5"/>
<feColorMatrix type="matrix" values="0 0 0 0 0.121569 0 0 0 0 0.145098 0 0 0 0 0.258824 0 0 0 0.63 0"/>
<feBlend mode="multiply" in2="BackgroundImageFix" result="effect1_dropShadow_1_2"/>
<feBlend mode="normal" in="SourceGraphic" in2="effect1_dropShadow_1_2" result="shape"/>
</filter>
<filter id="filter3_df_1_2" x="377.297" y="383.343" width="174.659" height="181.441" filterUnits="userSpaceOnUse" color-interpolation-filters="sRGB">
<feFlood flood-opacity="0" result="BackgroundImageFix"/>
<feColorMatrix in="SourceAlpha" type="matrix" values="0 0 0 0 0 0 0 0 0 0 0 0 0 0 0 0 0 0 127 0" result="hardAlpha"/>
<feOffset dx="10" dy="10"/>
<feGaussianBlur stdDeviation="37.5"/>
<feColorMatrix type="matrix" values="0 0 0 0 1 0 0 0 0 1 0 0 0 0 1 0 0 0 1 0"/>
<feBlend mode="normal" in2="BackgroundImageFix" result="effect1_dropShadow_1_2"/>
<feBlend mode="normal" in="SourceGraphic" in2="effect1_dropShadow_1_2" result="shape"/>
<feGaussianBlur stdDeviation="18" result="effect2_foregroundBlur_1_2"/>
</filter>
<linearGradient id="paint0_linear_1_2" x1="-495.731" y1="-150.27" x2="165.913" y2="401.584" gradientUnits="userSpaceOnUse">
<stop stop-color="#2C50AA"/>
<stop offset="0.334905" stop-color="#274188"/>
<stop offset="0.707645" stop-color="#1F2B56"/>
<stop offset="1" stop-color="#1B2548"/>
</linearGradient>
<linearGradient id="paint1_linear_1_2" x1="-495.732" y1="-150.271" x2="165.913" y2="401.584" gradientUnits="userSpaceOnUse">
<stop stop-color="#2C50AA"/>
<stop offset="0.334905" stop-color="#274188"/>
<stop offset="0.707645" stop-color="#1F2B56"/>
<stop offset="1" stop-color="#1B2548"/>
</linearGradient>
<linearGradient id="paint2_linear_1_2" x1="-495.738" y1="-150.275" x2="165.91" y2="401.586" gradientUnits="userSpaceOnUse">
<stop stop-color="#2C50AA"/>
<stop offset="0.334905" stop-color="#274188"/>
<stop offset="0.707645" stop-color="#1F2B56"/>
<stop offset="1" stop-color="#1B2548"/>
</linearGradient>
<linearGradient id="paint3_linear_1_2" x1="-495.736" y1="-150.277" x2="165.914" y2="401.581" gradientUnits="userSpaceOnUse">
<stop stop-color="#2C50AA"/>
<stop offset="0.334905" stop-color="#274188"/>
<stop offset="0.707645" stop-color="#1F2B56"/>
<stop offset="1" stop-color="#1B2548"/>
</linearGradient>
<linearGradient id="paint4_linear_1_2" x1="-495.733" y1="-150.271" x2="165.912" y2="401.585" gradientUnits="userSpaceOnUse">
<stop stop-color="#2C50AA"/>
<stop offset="0.334905" stop-color="#274188"/>
<stop offset="0.707645" stop-color="#1F2B56"/>
<stop offset="1" stop-color="#1B2548"/>
</linearGradient>
<linearGradient id="paint5_linear_1_2" x1="-495.733" y1="-150.271" x2="165.912" y2="401.585" gradientUnits="userSpaceOnUse">
<stop stop-color="#2C50AA"/>
<stop offset="0.334905" stop-color="#274188"/>
<stop offset="0.707645" stop-color="#1F2B56"/>
<stop offset="1" stop-color="#1B2548"/>
</linearGradient>
<linearGradient id="paint6_linear_1_2" x1="-495.734" y1="-150.271" x2="165.911" y2="401.586" gradientUnits="userSpaceOnUse">
<stop stop-color="#2C50AA"/>
<stop offset="0.334905" stop-color="#274188"/>
<stop offset="0.707645" stop-color="#1F2B56"/>
<stop offset="1" stop-color="#1B2548"/>
</linearGradient>
<linearGradient id="paint7_linear_1_2" x1="-495.733" y1="-150.271" x2="165.912" y2="401.585" gradientUnits="userSpaceOnUse">
<stop stop-color="#2C50AA"/>
<stop offset="0.334905" stop-color="#274188"/>
<stop offset="0.707645" stop-color="#1F2B56"/>
<stop offset="1" stop-color="#1B2548"/>
</linearGradient>
<linearGradient id="paint8_linear_1_2" x1="454.813" y1="606.783" x2="454.813" y2="332.39" gradientUnits="userSpaceOnUse">
<stop stop-color="#5DFFFF"/>
<stop offset="1" stop-color="#00FFFF" stop-opacity="0.32"/>
</linearGradient>
<linearGradient id="paint9_linear_1_2" x1="454.812" y1="594.583" x2="454.812" y2="344.59" gradientUnits="userSpaceOnUse">
<stop stop-color="#5DFFFF"/>
<stop offset="1" stop-color="#00FFFF" stop-opacity="0.32"/>
</linearGradient>
<linearGradient id="paint10_linear_1_2" x1="290.311" y1="630" x2="290.311" y2="545.097" gradientUnits="userSpaceOnUse">
<stop stop-color="white"/>
<stop offset="1" stop-color="#CBDDFF" stop-opacity="0.32"/>
</linearGradient>
<linearGradient id="paint11_linear_1_2" x1="283.525" y1="633.775" x2="283.525" y2="519.2" gradientUnits="userSpaceOnUse">
<stop stop-color="white"/>
<stop offset="1" stop-color="#CBDDFF" stop-opacity="0.32"/>
</linearGradient>
<linearGradient id="paint12_linear_1_2" x1="306.024" y1="550.08" x2="306.024" y2="541.106" gradientUnits="userSpaceOnUse">
<stop stop-color="white"/>
<stop offset="1" stop-color="#CBDDFF" stop-opacity="0.32"/>
</linearGradient>
<linearGradient id="paint13_linear_1_2" x1="309.46" y1="524.184" x2="309.46" y2="515.21" gradientUnits="userSpaceOnUse">
<stop stop-color="white"/>
<stop offset="1" stop-color="#CBDDFF" stop-opacity="0.32"/>
</linearGradient>
<linearGradient id="paint14_linear_1_2" x1="333.127" y1="590.88" x2="333.127" y2="581.902" gradientUnits="userSpaceOnUse">
<stop stop-color="white"/>
<stop offset="1" stop-color="#CBDDFF" stop-opacity="0.32"/>
</linearGradient>
<linearGradient id="paint15_linear_1_2" x1="243.317" y1="746.489" x2="243.317" y2="737.513" gradientUnits="userSpaceOnUse">
<stop stop-color="white"/>
<stop offset="1" stop-color="#CBDDFF" stop-opacity="0.32"/>
</linearGradient>
<linearGradient id="paint16_linear_1_2" x1="221.127" y1="809.249" x2="221.127" y2="800.274" gradientUnits="userSpaceOnUse">
<stop stop-color="white"/>
<stop offset="1" stop-color="#CBDDFF" stop-opacity="0.32"/>
</linearGradient>
<linearGradient id="paint17_linear_1_2" x1="288.32" y1="805.232" x2="288.32" y2="571.447" gradientUnits="userSpaceOnUse">
<stop stop-color="white"/>
<stop offset="1" stop-color="#CBDDFF" stop-opacity="0.32"/>
</linearGradient>
<linearGradient id="paint18_linear_1_2" x1="288.222" y1="742.471" x2="288.222" y2="585.921" gradientUnits="userSpaceOnUse">
<stop stop-color="white"/>
<stop offset="1" stop-color="#CBDDFF" stop-opacity="0.32"/>
</linearGradient>
<linearGradient id="paint19_linear_1_2" x1="226.328" y1="862.857" x2="226.328" y2="629.072" gradientUnits="userSpaceOnUse">
<stop stop-color="white"/>
<stop offset="1" stop-color="#CBDDFF" stop-opacity="0.32"/>
</linearGradient>
<linearGradient id="paint20_linear_1_2" x1="207.695" y1="866.632" x2="207.695" y2="632.847" gradientUnits="userSpaceOnUse">
<stop stop-color="white"/>
<stop offset="1" stop-color="#CBDDFF" stop-opacity="0.32"/>
</linearGradient>
<linearGradient id="paint21_linear_1_2" x1="431.874" y1="690.022" x2="431.874" y2="636.436" gradientUnits="userSpaceOnUse">
<stop stop-color="white"/>
<stop offset="1" stop-color="#CBDDFF" stop-opacity="0.32"/>
</linearGradient>
<linearGradient id="paint22_linear_1_2" x1="445.24" y1="708.107" x2="445.24" y2="620.702" gradientUnits="userSpaceOnUse">
<stop stop-color="white"/>
<stop offset="1" stop-color="#CBDDFF" stop-opacity="0.32"/>
</linearGradient>
<linearGradient id="paint23_linear_1_2" x1="464.922" y1="641.375" x2="464.922" y2="632.397" gradientUnits="userSpaceOnUse">
<stop stop-color="white"/>
<stop offset="1" stop-color="#CBDDFF" stop-opacity="0.32"/>
</linearGradient>
<linearGradient id="paint24_linear_1_2" x1="485.768" y1="625.644" x2="485.768" y2="616.665" gradientUnits="userSpaceOnUse">
<stop stop-color="white"/>
<stop offset="1" stop-color="#CBDDFF" stop-opacity="0.32"/>
</linearGradient>
<linearGradient id="paint25_linear_1_2" x1="416.08" y1="637.845" x2="416.08" y2="628.867" gradientUnits="userSpaceOnUse">
<stop stop-color="white"/>
<stop offset="1" stop-color="#CBDDFF" stop-opacity="0.32"/>
</linearGradient>
<linearGradient id="paint26_linear_1_2" x1="324.841" y1="792.62" x2="324.841" y2="783.642" gradientUnits="userSpaceOnUse">
<stop stop-color="white"/>
<stop offset="1" stop-color="#CBDDFF" stop-opacity="0.32"/>
</linearGradient>
<linearGradient id="paint27_linear_1_2" x1="349.399" y1="838.813" x2="349.399" y2="606.261" gradientUnits="userSpaceOnUse">
<stop stop-color="white"/>
<stop offset="1" stop-color="#CBDDFF" stop-opacity="0.32"/>
</linearGradient>
<linearGradient id="paint28_linear_1_2" x1="370.46" y1="788.608" x2="370.46" y2="632.879" gradientUnits="userSpaceOnUse">
<stop stop-color="white"/>
<stop offset="1" stop-color="#CBDDFF" stop-opacity="0.32"/>
</linearGradient>
<linearGradient id="paint29_linear_1_2" x1="329.749" y1="921.155" x2="329.749" y2="688.602" gradientUnits="userSpaceOnUse">
<stop stop-color="white"/>
<stop offset="1" stop-color="#CBDDFF" stop-opacity="0.32"/>
</linearGradient>
<linearGradient id="paint30_linear_1_2" x1="335.631" y1="939.239" x2="335.631" y2="706.686" gradientUnits="userSpaceOnUse">
<stop stop-color="white"/>
<stop offset="1" stop-color="#CBDDFF" stop-opacity="0.32"/>
</linearGradient>
<linearGradient id="paint31_linear_1_2" x1="619.4" y1="394.142" x2="619.4" y2="309.239" gradientUnits="userSpaceOnUse">
<stop stop-color="white"/>
<stop offset="1" stop-color="#CBDDFF" stop-opacity="0.32"/>
</linearGradient>
<linearGradient id="paint32_linear_1_2" x1="626.188" y1="420.04" x2="626.188" y2="305.463" gradientUnits="userSpaceOnUse">
<stop stop-color="white"/>
<stop offset="1" stop-color="#CBDDFF" stop-opacity="0.32"/>
</linearGradient>
<linearGradient id="paint33_linear_1_2" x1="603.688" y1="398.135" x2="603.688" y2="389.158" gradientUnits="userSpaceOnUse">
<stop stop-color="white"/>
<stop offset="1" stop-color="#CBDDFF" stop-opacity="0.32"/>
</linearGradient>
<linearGradient id="paint34_linear_1_2" x1="600.254" y1="424.031" x2="600.254" y2="415.055" gradientUnits="userSpaceOnUse">
<stop stop-color="white"/>
<stop offset="1" stop-color="#CBDDFF" stop-opacity="0.32"/>
</linearGradient>
<linearGradient id="paint35_linear_1_2" x1="576.584" y1="357.336" x2="576.584" y2="348.358" gradientUnits="userSpaceOnUse">
<stop stop-color="white"/>
<stop offset="1" stop-color="#CBDDFF" stop-opacity="0.32"/>
</linearGradient>
<linearGradient id="paint36_linear_1_2" x1="621.392" y1="367.792" x2="621.392" y2="134.004" gradientUnits="userSpaceOnUse">
<stop stop-color="white"/>
<stop offset="1" stop-color="#CBDDFF" stop-opacity="0.32"/>
</linearGradient>
<linearGradient id="paint37_linear_1_2" x1="621.489" y1="353.317" x2="621.489" y2="196.766" gradientUnits="userSpaceOnUse">
<stop stop-color="white"/>
<stop offset="1" stop-color="#CBDDFF" stop-opacity="0.32"/>
</linearGradient>
<linearGradient id="paint38_linear_1_2" x1="683.383" y1="310.166" x2="683.383" y2="76.381" gradientUnits="userSpaceOnUse">
<stop stop-color="white"/>
<stop offset="1" stop-color="#CBDDFF" stop-opacity="0.32"/>
</linearGradient>
<linearGradient id="paint39_linear_1_2" x1="702.016" y1="306.392" x2="702.016" y2="72.6069" gradientUnits="userSpaceOnUse">
<stop stop-color="white"/>
<stop offset="1" stop-color="#CBDDFF" stop-opacity="0.32"/>
</linearGradient>
<linearGradient id="paint40_linear_1_2" x1="477.837" y1="302.802" x2="477.837" y2="249.216" gradientUnits="userSpaceOnUse">
<stop stop-color="white"/>
<stop offset="1" stop-color="#CBDDFF" stop-opacity="0.32"/>
</linearGradient>
<linearGradient id="paint41_linear_1_2" x1="464.471" y1="318.536" x2="464.471" y2="231.132" gradientUnits="userSpaceOnUse">
<stop stop-color="white"/>
<stop offset="1" stop-color="#CBDDFF" stop-opacity="0.32"/>
</linearGradient>
<linearGradient id="paint42_linear_1_2" x1="444.79" y1="306.84" x2="444.79" y2="297.863" gradientUnits="userSpaceOnUse">
<stop stop-color="white"/>
<stop offset="1" stop-color="#CBDDFF" stop-opacity="0.32"/>
</linearGradient>
<linearGradient id="paint43_linear_1_2" x1="423.944" y1="322.573" x2="423.944" y2="313.595" gradientUnits="userSpaceOnUse">
<stop stop-color="white"/>
<stop offset="1" stop-color="#CBDDFF" stop-opacity="0.32"/>
</linearGradient>
<linearGradient id="paint44_linear_1_2" x1="323.415" y1="393.646" x2="323.415" y2="384.668" gradientUnits="userSpaceOnUse">
<stop stop-color="white"/>
<stop offset="1" stop-color="#CBDDFF" stop-opacity="0.32"/>
</linearGradient>
<linearGradient id="paint45_linear_1_2" x1="493.633" y1="310.372" x2="493.633" y2="301.394" gradientUnits="userSpaceOnUse">
<stop stop-color="white"/>
<stop offset="1" stop-color="#CBDDFF" stop-opacity="0.32"/>
</linearGradient>
<linearGradient id="paint46_linear_1_2" x1="560.313" y1="332.978" x2="560.313" y2="100.427" gradientUnits="userSpaceOnUse">
<stop stop-color="white"/>
<stop offset="1" stop-color="#CBDDFF" stop-opacity="0.32"/>
</linearGradient>
<linearGradient id="paint47_linear_1_2" x1="539.253" y1="306.362" x2="539.253" y2="150.629" gradientUnits="userSpaceOnUse">
<stop stop-color="white"/>
<stop offset="1" stop-color="#CBDDFF" stop-opacity="0.32"/>
</linearGradient>
<linearGradient id="paint48_linear_1_2" x1="579.963" y1="250.637" x2="579.963" y2="18.0864" gradientUnits="userSpaceOnUse">
<stop stop-color="white"/>
<stop offset="1" stop-color="#CBDDFF" stop-opacity="0.32"/>
</linearGradient>
<linearGradient id="paint49_linear_1_2" x1="574.08" y1="232.553" x2="574.08" y2="-3.05176e-05" gradientUnits="userSpaceOnUse">
<stop stop-color="white"/>
<stop offset="1" stop-color="#CBDDFF" stop-opacity="0.32"/>
</linearGradient>
<linearGradient id="paint50_linear_1_2" x1="320.763" y1="446.629" x2="320.763" y2="340.661" gradientUnits="userSpaceOnUse">
<stop stop-color="white"/>
<stop offset="1" stop-color="#CBDDFF" stop-opacity="0.32"/>
</linearGradient>
<linearGradient id="paint51_linear_1_2" x1="587.523" y1="550.081" x2="587.523" y2="541.103" gradientUnits="userSpaceOnUse">
<stop stop-color="white"/>
<stop offset="1" stop-color="#CBDDFF" stop-opacity="0.32"/>
</linearGradient>
<linearGradient id="paint52_linear_1_2" x1="584.872" y1="603.065" x2="584.872" y2="497.097" gradientUnits="userSpaceOnUse">
<stop stop-color="white"/>
<stop offset="1" stop-color="#CBDDFF" stop-opacity="0.32"/>
</linearGradient>
<linearGradient id="paint53_linear_1_2" x1="718.645" y1="556.049" x2="718.645" y2="68.8442" gradientUnits="userSpaceOnUse">
<stop stop-color="white"/>
<stop offset="1" stop-color="#CBDDFF" stop-opacity="0.32"/>
</linearGradient>
<linearGradient id="paint54_linear_1_2" x1="615.454" y1="578.177" x2="615.454" y2="551.968" gradientUnits="userSpaceOnUse">
<stop stop-color="white"/>
<stop offset="1" stop-color="#CBDDFF" stop-opacity="0.32"/>
</linearGradient>
<linearGradient id="paint55_linear_1_2" x1="193.5" y1="870.393" x2="193.5" y2="383.191" gradientUnits="userSpaceOnUse">
<stop stop-color="white"/>
<stop offset="1" stop-color="#CBDDFF" stop-opacity="0.32"/>
</linearGradient>
<linearGradient id="paint56_linear_1_2" x1="296.691" y1="387.27" x2="296.691" y2="361.059" gradientUnits="userSpaceOnUse">
<stop stop-color="white"/>
<stop offset="1" stop-color="#CBDDFF" stop-opacity="0.32"/>
</linearGradient>
<linearGradient id="paint57_linear_1_2" x1="337.614" y1="325.012" x2="337.614" y2="285.632" gradientUnits="userSpaceOnUse">
<stop stop-color="white"/>
<stop offset="1" stop-color="#CBDDFF" stop-opacity="0.32"/>
</linearGradient>
<linearGradient id="paint58_linear_1_2" x1="512.121" y1="652.806" x2="512.121" y2="629.945" gradientUnits="userSpaceOnUse">
<stop stop-color="white"/>
<stop offset="1" stop-color="#CBDDFF" stop-opacity="0.32"/>
</linearGradient>
<linearGradient id="paint59_linear_1_2" x1="488.544" y1="208.153" x2="488.544" y2="181.026" gradientUnits="userSpaceOnUse">
<stop stop-color="white"/>
<stop offset="1" stop-color="#CBDDFF" stop-opacity="0.32"/>
</linearGradient>
<linearGradient id="paint60_linear_1_2" x1="337.615" y1="682.09" x2="337.615" y2="654.961" gradientUnits="userSpaceOnUse">
<stop stop-color="white"/>
<stop offset="1" stop-color="#CBDDFF" stop-opacity="0.32"/>
</linearGradient>
<linearGradient id="paint61_linear_1_2" x1="566.989" y1="628.867" x2="566.989" y2="612.081" gradientUnits="userSpaceOnUse">
<stop stop-color="white"/>
<stop offset="1" stop-color="#CBDDFF" stop-opacity="0.32"/>
</linearGradient>
<radialGradient id="paint62_radial_1_2" cx="0" cy="0" r="1" gradientUnits="userSpaceOnUse" gradientTransform="translate(438.692 435.496) rotate(63.1327) scale(36.8647 43.7314)">
<stop stop-color="#7D7194"/>
<stop offset="1" stop-color="#7D7194" stop-opacity="0"/>
</radialGradient>
<radialGradient id="paint63_radial_1_2" cx="0" cy="0" r="1" gradientUnits="userSpaceOnUse" gradientTransform="translate(500.986 452.591) rotate(161.19) scale(48.9743)">
<stop stop-color="#4A8F9F"/>
<stop offset="1" stop-color="#4A8F9F" stop-opacity="0"/>
</radialGradient>
<radialGradient id="paint64_radial_1_2" cx="0" cy="0" r="1" gradientUnits="userSpaceOnUse" gradientTransform="translate(470.853 514.74) rotate(-108.939) scale(31.2451)">
<stop stop-color="#5C4763"/>
<stop offset="1" stop-color="#5C4763" stop-opacity="0"/>
</radialGradient>
<radialGradient id="paint65_radial_1_2" cx="0" cy="0" r="1" gradientUnits="userSpaceOnUse" gradientTransform="translate(401.315 486.056) rotate(-18.3418) scale(56.1657 78.0719)">
<stop stop-color="#3D3041"/>
<stop offset="1" stop-color="#3D3041" stop-opacity="0"/>
</radialGradient>
<linearGradient id="paint66_linear_1_2" x1="436.549" y1="440.902" x2="457.546" y2="437.425" gradientUnits="userSpaceOnUse">
<stop stop-color="#E375A0"/>
<stop offset="1" stop-color="#E375A0" stop-opacity="0"/>
</linearGradient>
<radialGradient id="paint67_radial_1_2" cx="0" cy="0" r="1" gradientUnits="userSpaceOnUse" gradientTransform="translate(442.479 455.1) rotate(69.3339) scale(35.3021 42.5212)">
<stop stop-color="#B850C1"/>
<stop offset="1" stop-color="#DCADE0" stop-opacity="0"/>
</radialGradient>
<linearGradient id="paint68_linear_1_2" x1="463.703" y1="446.638" x2="463.375" y2="457.626" gradientUnits="userSpaceOnUse">
<stop stop-color="#B850C1"/>
<stop offset="1" stop-color="#DCADE0" stop-opacity="0"/>
</linearGradient>
<linearGradient id="paint69_linear_1_2" x1="439.293" y1="481.756" x2="466.529" y2="471.325" gradientUnits="userSpaceOnUse">
<stop stop-color="#7EA1E4"/>
<stop offset="1" stop-color="#70CBFF" stop-opacity="0"/>
</linearGradient>
<linearGradient id="paint70_linear_1_2" x1="497.003" y1="465.53" x2="463.704" y2="480.536" gradientUnits="userSpaceOnUse">
<stop stop-color="#5BAEEC"/>
<stop offset="1" stop-color="#5BAEEC" stop-opacity="0"/>
</linearGradient>
<linearGradient id="paint71_linear_1_2" x1="442.056" y1="461.999" x2="486.222" y2="470.211" gradientUnits="userSpaceOnUse">
<stop stop-color="#85FAFE" stop-opacity="0"/>
<stop offset="1" stop-color="#85FAFE"/>
</linearGradient>
<radialGradient id="paint72_radial_1_2" cx="0" cy="0" r="1" gradientUnits="userSpaceOnUse" gradientTransform="translate(439.761 447.13) rotate(84.3771) scale(32.3182 36.0956)">
<stop stop-color="#65ECE8"/>
<stop offset="1" stop-color="#8BECE9" stop-opacity="0"/>
</radialGradient>
<linearGradient id="paint73_linear_1_2" x1="478.791" y1="483.865" x2="488.303" y2="465.661" gradientUnits="userSpaceOnUse">
<stop stop-color="#7BE7F6" stop-opacity="0"/>
<stop offset="0.75" stop-color="#7BE7F6"/>
</linearGradient>
<radialGradient id="paint74_radial_1_2" cx="0" cy="0" r="1" gradientUnits="userSpaceOnUse" gradientTransform="translate(461.892 502.617) rotate(-68.2079) scale(20.296 26.0576)">
<stop stop-color="#E375A0" stop-opacity="0"/>
<stop offset="1" stop-color="#FF91C6"/>
</radialGradient>
<linearGradient id="paint75_linear_1_2" x1="459.864" y1="474.512" x2="461.312" y2="484.363" gradientUnits="userSpaceOnUse">
<stop stop-color="white"/>
<stop offset="1" stop-color="white" stop-opacity="0"/>
</linearGradient>
</defs>
</svg>
